<?xml version="1.0" encoding="UTF-8"?>
<!-- Created with Inkscape (http://www.inkscape.org/) -->
<svg id="SVGRoot" width="128px" height="128px" version="1.1" viewBox="0 0 128 128" xmlns="http://www.w3.org/2000/svg" xmlns:cc="http://creativecommons.org/ns#" xmlns:dc="http://purl.org/dc/elements/1.1/" xmlns:osb="http://www.openswatchbook.org/uri/2009/osb" xmlns:rdf="http://www.w3.org/1999/02/22-rdf-syntax-ns#" xmlns:xlink="http://www.w3.org/1999/xlink">
 <defs>
  <linearGradient id="linearGradient4679" x1="37.704" x2="151.28" y1="106.68" y2="106.68" gradientUnits="userSpaceOnUse">
   <stop stop-color="#fff" offset="0"/>
  </linearGradient>
 </defs>
 <metadata>
  <rdf:RDF>
   <cc:Work rdf:about="">
    <dc:format>image/svg+xml</dc:format>
    <dc:type rdf:resource="http://purl.org/dc/dcmitype/StillImage"/>
    <dc:title/>
   </cc:Work>
  </rdf:RDF>
 </metadata>
 <g transform="matrix(.88213 0 0 .88213 -16.916 -29.623)">
  <g transform="translate(-1.1336)">
   <rect x="39.804" y="36.83" width="109.38" height="139.69" rx="13.489" ry="13.985" fill="url(#linearGradient4679)" stroke="#000005" stroke-linecap="round" stroke-linejoin="round" stroke-miterlimit="100" stroke-width="4.1984"/>
   <path d="m61.799 37.727 0.18899 138.44-0.18899 0.44646" fill="none" stroke="#000005" stroke-width="3.9688"/>
   <g transform="translate(0 1.309)">
    <circle cx="50.915" cy="74.899" r="5.3454"/>
    <circle cx="50.915" cy="90.133" r="5.3454"/>
    <circle cx="50.915" cy="105.37" r="5.3454"/>
    <circle cx="50.915" cy="120.6" r="5.3454"/>
    <circle cx="50.915" cy="135.84" r="5.3454"/>
    <circle cx="50.915" cy="151.07" r="5.3454"/>
    <circle cx="50.915" cy="59.665" r="5.3454"/>
   </g>
  </g>
  <g transform="translate(-.88909 1.9518)">
   <path d="m140.15 54.671c-0.28783 2.2077-0.23724 4.7685-0.70893 1.2661-0.0655-2.1079-4.8315 2.0662-1.333 0.05096-1.5676 2.3512-1.6652-0.18026-2.1612 0.38603-1.4151 0.20388 5.8476-4.119 2.0971-1.205 0.57967 0.25161 1.5774-1.0756 2.1058-0.49835zm-1.3814-1.0694c-2.648 1.4293-5.5164 4.4594-7.7021 7.1082-4.5439 4.6432 1.1174-3.4985 2.9748-4.8417 0.51035 1.2043 5.513-3.4815 1.2638-0.66458-1.1569 0.60754 2.2468-2.0763-0.99495-0.02377-1.9046 0.82861-5.4919 6.386-4.8345 5.0027 0.90167-2.1587 7.4693-7.779 2.2823-3.7729-1.6511 1.4902-4.7254 7.2179-4.5715 6.4738 0.7368-2.4646 4.8355-7.1162 4.2598-7.097-3.1288 2.8372-5.1596 7.8183-6.7073 9.0669-3.003 4.0973 4.1597-7.526 0.35602-2.5328-0.84734 1.7319-3.9219 6.4728-1.4514 2.19 1.804-4.247-4.8333 7.2678-2.0813 1.9458 1.6659-2.0889 3.0323-6.1107 0.74057-1.847-2.856 4.6089 3.3805-7.2147 2.0945-3.2256 2.6595-2.294 1.5124-3.6496-1.0513-0.85422-0.97043 1.6071-1.0558 4.0561-3.2561 6.3493 0.71023-1.5169 3.2732-6.2627 0.75058-2.3682-1.6917 2.9291-1.5822 3.5005-2.1286 2.5715-0.85317 1.1497-4.0778 8.3915-2.244 3.4384 1.855-4.8851-2.3462 3.4601-3.1166 4.8102 0.88674-2.1037 1.2836-4.1188-0.10211-0.9156-0.53632 1.3861-2.5461 5.3827-1.2673 1.6808 2.1806-6.0486-4.3387 9.0426-2.0899 2.8113 0.64082-1.5433 2.3142-5.1642 0.0451-2.142 2.2629-4.2601-3.3784 1.1828-2.5392 0.83107 1.4629-2.9128 3.9201-3.5928 4.3794-5.1678 3.4728-2.3587 4.9235-6.4103 7.9452-9.3924 3.457-3.6953 7.6541-6.9249 12.304-9.2193 2.0564-0.64782 4.8088-1.1822 6.7427-0.21558zm1.7645 1.5649c1.7387 2.7985-0.20493 4.3339-3.0986 5.1244 3.1435-0.26938 3.9752 0.23652 0.45811 0.41218-7.9036 1.4592 4.0165-1.671 2.8899-3.029-0.10479-0.82702-0.54627-1.6554-0.24951-2.5077zm0.0612 5.9354c-2.2778 1.0351-7.2241 2.8934-2.0048 1.7877 3.771-0.15214 1.4005 6.6077 1.4905 9.3962-0.0308 3.8929-2.2756 3.4722-4.2286 6.1255 1.6149-1.3652 4.3279-2.1738 0.84466-0.14881-3.9594 3.8346-8.8493 6.7476-14.315 8.3961-4.1321 1.0313 5.2158-2.1141 6.7855-3.2905 2.4122-0.69112 7.8142-5.7882 2.7859-2.1827-5.8232 4.0107-12.857 5.7114-19.394 8.3064-2.2538 0.91158-8.4388 4.2173-3.263 0.88243 10.062-3.5723 20.566-7.3692 28.462-14.569 2.1481-3.1807 2.7563-7.4725 2.3405-11.315-1.3498-3.2631-7.1456 0.79579-9.4012 2.391-5.0588 3.0718-10.168 6.3224-13.552 11.081-1.605 1.8924-4.1201 3.6288-1.1426 0.60037 2.5061-2.7189 5.7954-6.6858 8.2393-8.3381-2.2222 2.5611 3.5469-2.3542 4.8073-2.7563 2.6175-1.7681 4.1057-3.2027 7.8512-5.15 1.1453-0.5999 2.388-1.078 3.6937-1.2164zm-4.5533-3.3953c-1.9021 3.7415-2.8096 3.5986-4.5163 6.2485-1.5868 2.1505-4.1365 3.3525-1.3206 0.21314 1.7523-1.4994 4.6046-5.2225 1.2113-1.9403-5.4432 5.2633-11.402 10.087-16.12 15.963-1.5883 2.042-6.4421 6.9856-5.4145 7.0916 1.3636-1.8365 5.4254-5.5948 1.683-1.6327-3.6483 3.9689-6.8229 8.0401-9.6369 12.783-5.4563 9.1325-11.098 18.34-14.36 28.321-1.2149 5.7222-4.373 10.81-5.264 16.588-0.19705 3.6157-3.6931 7.457-1.0099 10.679 1.0097 1.3159-0.02244 8.0652 0.03913 3.26 1.1149-2.456-3.6181-7.9977-1.4047-3.2388 1.4476 1.5626 0.05097 8.6107-0.29132 6.973 1.5095-2.5391-0.75291-10.592-1.3589-4.1915-1.1242 3.3071-2.009 15.616-2.5496 13.805 0.82278-9.2361 2.7942-18.417 5.4709-27.397-0.22491 5.2472 2.4139-6.7323 0.31038-0.5738 0.5856-2.8785 2.6197-7.3144 3.2561-10.906 0.88125-3.3311 2.6789-7.6042 3.4343-10.186 0.76488-2.0203 0.94312-2.0738 0.46298-0.10443 1.0685-3.4397 1.6685-5.2957 2.9497-7.6455 1.0652-2.0591 4.082-5.9324 5.6087-9.0325 1.9778-3.396 4.3336-6.6009 6.4951-9.9064 1.9394-4.2737 5.7914-7.8394 8.5836-11.743 1.4308-1.2635 5.9307-7.3492 1.8916-3.2799-4.9292 5.433-9.7265 11.163-12.993 17.555-3.3378 3.7772-5.7235 8.2707-8.529 12.414-2.1784 3.3805-3.2311 6.3372-5.156 9.7462-1.2365 2.6746-1.7022 5.6856-3.4835 9.1163-1.3554 4.1657-2.4527 7.1407-3.5461 11.528-0.64366 2.3689-1.2304 3.5152-0.63865 0.53072 0.75766-2.1844 0.6112-3.6071-0.35168-0.62841-0.53652 1.4808-1.7745 4.3511-0.15828 3.381-0.64866 4.1083-2.1545 8.3407-3.691 12.296-0.157-3.2597 2.8779-6.7578 1.9024-9.7889-2.0942 7.6082-4.6698 15.271-4.5641 23.148-1.5755-3.1638 0.46426-7.41 0.42304-10.988 0.20419-4.4144-0.56194-9.1992-3.0189-12.936-2.0483-1.3281-3.2539-6.6462-2.0658-6.957-0.85579 3.8621 2.6607 6.2486 4.5464 9.1205 1.064 1.7238-0.97679 0.41142 0.18093 3.0587 0.33691 3.3205 2.8685 2.2405 2.5614-0.18413 1.4757-5.2037 3.1742-10.371 4.7399-15.542 1.1209-2.9901 2.294-6.1581 3.6871-8.7805 2.0291-5.1126 4.1505-10.191 7.205-14.879 2.9654-6.2444 7.2021-11.842 11.183-17.563 6.0993-9.1528 13.836-17.411 22.561-24.547 3.3293-2.7751 6.7732-5.4444 9.861-8.4571-0.82382-0.32019-2.2677 1.2591-0.37322-0.91694 0.39456 0.43506 0.63385 0.03877 1.5616 0.12682zm1.3351 7.3312c-3.0841 2.1387-2.1636 1.7337-4e-3 0.95015-1.8489 1.034-7.0358 3.9788-6.8315 3.2187 0.40351-0.45914 4.3553-3.189 6.8355-4.1689zm-0.96771-0.4045c-2.7668 1.13-8.1571 5.3369-6.9449 3.6076 2.2729-1.1641 4.464-3.0333 6.9449-3.6076zm1.7968 2.6614c-4.1285 2.7651-8.6906 5.1586-13.54 6.5618-0.78388-0.18158-7.0003 3.4015-2.7819 0.68052 1.6554-1.202 9.3215-4.2338 3.8423-1.5991-0.75315 0.92208 4.9096-1.6024 6.5031-2.5647 2.1313-0.8047 3.8921-2.3592 5.9763-3.0783zm-0.76267-0.53552c-1.9782 1.3055-7.1805 4.4242-8.1742 4.2677 2.6491-1.478 5.4943-3.1044 8.1741-4.2679zm0.16395 2.1456c-4.266 3.0305-9.4817 4.9956-14.59 6.4635-2.0883 0.98413-9.1516 5.2262-3.4616 1.5175 4.7592-2.9098 10.613-3.6732 15.311-6.7783 0.94902-0.33234 1.6301-1.5349 2.7404-1.2023zm0.0851 1.0363c-1.3244 1.2273 0.72356 2.4004-1.8972 2.1903-3.3222 2.0794-9.1785 4.8135-12.044 4.6138 4.4651-1.2384 10.084-2.9203 12.881-6.2154-4.5725 3.0131-9.8132 4.8498-15.087 6.3489-2.2434 1.2392-4.4549 2.3361-0.99751 0.18904 4.6779-1.9522 9.7587-3.1326 14.169-5.7839 1.1253-0.12277 1.8783-1.7344 2.9752-1.3428zm-0.4405 3.0917c-1.0592 1.6572-8.336 5.353-2.8844 2.5613 4.6923-1.8127-7.9825 4.4855-4.817 2.6708-1.8134 1.1221-7.4077 2.4282-2.6293 0.74871 1.489-0.52796 5.956-2.5743 1.9521-1.1328-4.4395 1.2312-11.174 4.3286-14.09 5.3676 6.3811-3.7409 13.93-4.9855 20.31-8.6972 0.86189-0.26298 1.5135-1.2363 2.158-1.5179zm-8.1029-4.345c-1.6501 1.1438-8.4597 5.5747-3.7805 2.1552 1.1764-0.83345 2.3971-1.6517 3.7805-2.1552zm6.0222 4.805c-3.0508 2.2989-7.9038 4.3259-11.082 4.7548 3.9126-1.0636 7.5472-2.8745 11.082-4.7548zm-5.1973-3.7831c-2.3636 0.68583-8.1356 4.8359-7.8853 3.5982 2.6478-0.73226 4.908-3.1163 7.8853-3.5983zm9.3479 7.868c-2.7861 4.4061-4.2621 9.2889-6.8598 13.771-2.5253 3.8813-3.7476 8.8435-7.6352 11.771-3.0798 2.4121-9.5649 4.2452-11.579 5.5276 4.9394-0.89378 9.539-3.3012 13.665-5.868-3.2972 3.1198-5.1262 7.1149-8.0192 10.52-2.3819 3.9046-6.1814 6.7912-10.706 8.3401-3.4022 1.3479 3.0917-0.7803-0.88273 0.85649-2.2711 1.0298-10.793 3.5935-4.1057 2.424 3.9074-0.73748 7.253-3.3839 10.983-4.2254-4.6054 4.1843-6.06 10.645-11.339 14.199-3.0823 2.7085-3.836 7.4946-8.7804 7.6286-2.0852 1.0505-9.0591 3.4406-2.4996 2.3675 2.8256 0.42094 7.1065-2.7924 6.5331-1.5498-3.2796 2.7439-11.623 2.3921-13.277 1.7737-4.0813 0.27411-1.3803-1.5612 1.0772-0.66729 4.7612-1.5118 11.421-1.5915 13.791-6.3475 2.0555-3.6506 4.9626-5.0706 6.8576-7.3605 1.2442-1.7229-3.7558 1.428 0.18824-1.1034 1.4237-1.4596 3.4507-4.4022 0.0749-1.5357-1.3006 1.6331-3.8992 5.5223-6.7882 7.4024-3.5456 1.869 5.6861-4.6481 0.24404-1.9524 1.7623-0.6115 6.4744-5.0037 4.6842-4.2435-1.1132 0.85207-5.0547 3.8353-4.4002 2.5948 2.7002-1.8624 9.3536-7.8566 8.9174-6.5544-2.7467 1.5632-5.958 4.9247-8.6547 4.8641 2.5333-1.9178 6.5287-3.0788 8.8984-5.5222-3.0906 0.86809-7.0326 2.3565-10.902 2.525 2.675-0.0511 10.066-2.9677 3.5854-1.5314-3.2433 0.64914-12.371-0.33436-11.091 0.59607 2.3406-0.62841 8.0472-0.57939 8.2123-1.5949-1.9139 0.65142-8.2644-0.4143-3.1965-0.12664 3.3501-0.0838 9.6962-1.2448 9.1818-2.1432 3.8773-1.6372 9.188-3.6664 11.009-6.8874 2.5142-2.8484 2.3352-3.4598 5.1342-6.601 1.0346-1.5619 3.9676-5.4688 0.31491-2.7991-6.3571 3.4106-13.811 3.6028-20.76 5.1766 3.3404-1.8217 7.9974-1.6559 11.717-3.1829 4.5927-2.0861 9.7864-3.6771 13.388-7.1821 3.356-4.6442 5.7499-9.7926 8.2916-14.829-3.7577 2.0825-4.802 3.4143-8.495 5.5594-1.9545 1.4677-9.0588 3.9604-3.3223 1.477 2.3447-0.96716 3.3805-2.0519 0.30463-0.57604-1.6581 0.15962-10.133 3.2045-4.4366 1.025 6.0421-2.1562 12.438-4.6863 16.671-9.413 0.3057-1.57 3.9409-6.7816 2.4383-5.564-1.8988 1.806-3.8012 2.3255-0.71607 0.07866 0.67091-0.47143 1.3529-1.1999 2.2842-1.1185zm-4.3052-1.2166c-1.4908 1.4727-6.3315 3.101-2.0794 1.009 0.68415-0.35244 1.3771-0.68992 2.0794-1.009zm-0.5903 1.2748c-1.9493 1.5548-10.563 5.0624-9.2591 4.0402 3.1324-1.2029 6.3545-2.6755 9.2591-4.0402zm0.26429 3.0676c-1.9271 3.0708-5.7355 5.8815-9.4988 7.5262-2.7059 1.1849-4.1832 1.227-0.64833-0.05973 4.8427-2.1852-6.7999 2.1266-1.4598-0.1087 2.8228-0.69038 10.916-5.3866 4.2694-2.2297-1.6823 1.1452-8.7795 2.893-3.3139 1.0314 3.8461-1.5208 7.747-3.2694 10.652-6.1596zm-3.9802-2.025c-2.0045 1.1557-9.2591 2.0859-8.2537 2.7082 2.8972-0.43558 5.5713-1.8859 8.2536-2.7081zm-0.68231 1.9739c-2.1543 1.1646-4.3016 1.3327-0.81042 0.20715zm-16.317-10.541c-0.30643 1.8925-2.6228 2.4147 0 0zm8.7559 7.0891c-1.6574 1.142-6.4503 3.3002-2.2988 0.95704 0.72462-0.39697 1.4826-0.76365 2.2988-0.95704zm9.8663 7.9954c-2.2712 2.3089-5.4448 4.7822-9.6127 6.2674-1.9177 0.83712-7.2554 2.1308-2.6949 0.6042 2.5689-0.44677 9.7491-4.7791 3.5678-1.8756-1.9673 0.73754-7.7635 2.4489-3.1238 0.35003 2.7149-0.53066 8.8473-4.3633 8.6709-3.9254-1.6855 1.1714-7.3778 4.031-2.3084 1.8819 1.9948-0.86331 3.3679-2.6864 5.5013-3.3028zm-8.7167-6.7316c-2.3739 0.43172-8.9652 2.9683-7.9263 3.108 2.5788-1.1548 5.0345-2.7718 7.9263-3.108zm3.6982 4.8925c-2.1272 0.51004-3.4261 1.9027-0.62919 0.3557zm-3.0969-1.6888c-2.0722 0.74724-5.3469 2.813-6.922 2.6528 2.3631-0.75211 4.478-2.1186 6.922-2.6528zm7.257 8.6883c-1.8168 1.7042-4.4074 2.076 0 0zm-1.1481 1.4325c-1.1989 2.1745-9.5916 5.1773-8.3734 4.4239 2.9279-1.2134 5.8795-2.5081 8.3734-4.4239zm-20.258-14.783c-0.97837 2.5464-2.8104 5.7602-4.2532 7.6331 1.1337-2.617 2.481-5.6138 4.2532-7.6331zm19.196 16.598c-0.78606 1.3952-5.1834 3.3527-1.7285 1.1485l0.88868-0.57682zm-10.592-7.7939c-3.0403 1.2669-8.5338 4.257-10.192 4.2804 3.3574-1.5029 6.5928-3.3286 10.192-4.2804zm-11.348-7.9611c-1.5599 2.891-4.0892 5.7441-6.2453 9.0459-1.8581 1.828-3.201 7.4203-3.7728 7.9821 0.79848-2.0903 1.6986-6.0294-0.77826-1.9743-1.1087 1.2678-1.3437 9.6741-1.3787 4.3527-0.21738-1.7702 0.50823-3.2665 0.79223-4.5972-3.3425 5.0448-6.6034 10.175-9.4383 15.48-1.0692 1.953-0.53456 3.2951-1.6097 2.0139-0.38363 1.2739-2.2404 6.4715-2.2285 6.7284 0.26477-4.542-0.39546 0.60163-0.51959 1.8573-0.28128-4.9676-1.1669 0.35828-0.84997 0.65947-0.37336-5.1416-0.5406 6.0848-0.92538 1.5544-1.6647 6.3115-3.7673 12.971-2.947 19.561-0.90015-1.5077-1.6635-6.0778-0.45091-5.8015-0.92421-1.4938-0.15083-6.6618 0.6257-10.115 1.2469-2.9424 1.5191-6.2925 3.514-8.7422 1.069-4.6306 5.0109-8.9581 7.56-13.286 3.1728-4.3943 5.9039-9.1504 9.5272-13.217 2.315-2.4482 3.8239-4.8 5.967-7.738 0.97475-1.23 1.9557-2.9819 3.1578-3.763zm20.628 17.893c-1.3752 1.8083-8.9933 4.8855-3.2245 1.8806 1.067-0.63791 2.0973-1.3359 3.2245-1.8806zm-11.153-7.2159c-1.8778 0.86912-5.8497 2.7793-6.9198 2.7586 2.3065-0.88755 4.4517-2.2985 6.9198-2.7586zm-1.0778 1.6819c-1.4496 0.81092-9.4371 4.4205-4.4194 1.6234 1.4406-0.50786 2.9718-1.3467 4.4194-1.6234zm9.9701 9.0525c-1.5304 1.5441-7.5665 3.5418-2.4522 1.2252 0.81687-0.40926 1.6324-0.82112 2.4522-1.2252zm-6.3472-4.4533c-1.6569 0.92274-3.2749 0.69813-0.57729 0.08208zm2.0665 13.15c-0.61788 1.126-4.7366 3.0276-2.4722 2.8512-1.8939 1.3992-4.7766 2.4951-3.8664 0.52375 2.5398-0.18353 3.8183-2.6546 6.3386-3.3748zm-2.7596 0.59462c0.011 1.0033-5.159 2.6183-2.6009 1.3189-2.713 0.59879-4.3586 0.75316-0.821-0.30472 1.2002-0.0867 2.411-0.80939 3.4218-1.0142zm-12.077-9.2422c-1.4378 1.0337-7.6203 4.4741-2.9997 1.2969 0.9031-0.58242 1.8656-1.2497 2.9997-1.2969zm11.546 13.181c-0.56589 2.7439-8.3171 5.2239-2.48 2.3388 1.1994-0.42762 1.3972-1.7582 2.48-2.3388zm-0.60123-0.15217c-5.2 3.3904-11.43 5.4556-17.761 5.17-0.83349-0.6452 6.2492-0.21054 8.1208-1.227 3.3557-1.0227 6.4302-2.6048 9.6398-3.9431zm-0.98085 1.3486c-1.7649 1.3289-4.8835 2.2346-1.2256 0.42018l0.60818-0.31459zm-1.8562-0.84782c-1.3276 1.3908-6.7269 1.0163-1.6514 0.45818 0.56442 0.16306 1.1117-0.73215 1.6514-0.45818zm-4.4886 1.0461c-1.6624 0.5512-6.5341 0.18385-2.1548 0.0293l1.0906-0.0335zm0.0395 0.90849c-3.8081 1.5949-8.1899 1.3217-11.766 1.8335-1.9797-0.13287-3.1496-0.77454 0.34093-0.4277 3.8501-0.65358 7.5874-0.80495 11.425-1.4058zm2.219 5.5921c-1.3261 1.2054-5.5214 2.2151 0 0zm-22.936-11.415c-0.01903 3.2916-1.0417 1.7007 0 0zm-0.77192 0.99595c0.26174 2.4649-0.96327 3.7018 0 0zm18.832 15.734c-1.5459 1.8781-7.5053 3.4478-2.4902 1.2114 0.80111-0.45202 1.6067-0.91456 2.4902-1.2114zm-19.726-15.133c0.20005 2.3378-0.71692 5.702-0.23458 1.4436 0.28795-0.1798-0.30498-1.3188 0.23458-1.4436zm-0.88854 1.7262c0.18807 1.8456-0.5624 6.2829-0.2959 2.0613 0.04981-0.69069 0.12676-1.3822 0.2959-2.0613zm-0.72665 0.50929c0.11636 2.5058-0.48035 5.0269-0.33559 1.1802 0.35791-0.23732-0.11185-0.96777 0.33559-1.1802zm-0.87639 1.4128c0.10873 2.554-0.91436 5.561-0.2857 1.2606 0.46492-0.18727-0.17914-1.0172 0.2857-1.2606zm20.617 16.668c-2.7124 3.276-3.7154 1.9685 0 0zm-6.6187-5.1041c-1.5908-0.30488-6.1907 0.95047-1.808 0.39147l0.92907-0.13765zm-15.135-8.4941c0.17078 2.3752-0.34546 5.4523-0.26041 1.312 0.24545-7e-3 -0.22044-1.2994 0.26041-1.312zm16.503 15.378c-1.0236 2.1552-9.5082 2.8814-3.4517 1.514 1.9595-0.43618 3.0869-1.1855 0.43581-0.67734 0.95824-0.42888 2.0269-0.49957 3.016-0.83663zm-17.521-13.557c0.16039 1.8789 0.23427 7.6616-0.23982 2.3914 0.16639-0.61449-0.57431-2.0066 0.23982-2.3914zm-1.0836 0.6934c0.67059 2.022 0.40809 8.0243 0.02984 2.8988 0.0092-0.94838-0.30915-1.9734-0.02984-2.8988zm17.873 14.088c-1.1881 1.4944-6.6741 2.4739-2.1164 1.01 0.68926-0.35844 1.2844-0.95289 2.1165-1.0102zm-18.455-12.346c0.48753 1.7533 0.27357 6.0396-0.10665 2.0327-0.05668-0.67528-0.07315-1.3618 0.10632-2.0328zm18.331 14.842c-1.5626 1.6245-3.0496 1.1736 0 0zm-2.4692-0.23231c-8.204 5.4961-3.1802 0.60863 0 0zm-16.383-12.388c0.3995 2.262-0.2441 3.8442-0.17716 0.60635zm-0.80614 1.3803c0.63511 2.4433 0.19559 5.4215-0.0975 1.2573 0.36958 0.31589-0.5429-1.652 0.0975-1.2573zm-3.2351-1.7756c0.77392 3.2319-0.87823 2.8596 0 0zm2.4491 3.9028c0.57857 2.3069 0.37791 5.8352-0.25681 6.3496 0.0105-2.058-0.03394-4.4419 0.25681-6.3496zm-4.0255-3.0966c1.5333 2.0033 1.2634 6.0612 0.42759 1.3933 0.39917 0.0939-1.1983-1.5922-0.42759-1.3933zm-1.1035 1.4819c1.7676 2.8566 0.10881 7.5259 1.374 9.6112-0.73382 4.228-1.7685-3.3032-0.96444-4.7218 0.11039-1.5359-0.38597-3.8551-0.40969-4.8894zm-1.3902 1.6424c0.58168 2.4651 0.59231 5.2598-0.2371 1.2063 0.40256 0.15962-0.44806-1.3352 0.2371-1.2063zm22.214 18.64c-3.0356 0.65946-1.3883 0.37293-2.9348 0.94712-2.6334 0.78317-4.1065-0.0445-0.7176-0.10883 0.92494-0.9079 2.4174-1.1578 3.6524-0.83841zm-21.439-14.656c0.01567 3.784-0.68357 3.4662 0.83047 7.3368 2.201 1.1981 1.9607 8.1909 0.6612 3.0993 0.62144-2.1927-4.1291-5.4718-2.1365-9.2228 0.52274-0.26597-0.05582-1.1814 0.64483-1.2134zm18.05 16.682c-2.0399 1.9208-8.9643-1.8791-6.1384 2.234-3.7925-5.1711 3.2866-1.3554 6.1384-2.234zm-18.813-11.071c0.96267 2.7374 1.5612 4.3024 0.03419 3.0634-2.3655-0.28791-3.8472-4.3158-2.4729-4.6311-1.3147 2.6727 4.0967 5.8364 2.4388 1.5678zm10.79 11.212c1.5011 1.259 1.4583 5.5337 2.5042 3.6795-0.34884 2.7007-1.589 3.0984-3.1404 4.9022 2.5501-2.6082 2.0754-7.1028-0.03642-8.0655-0.2616-0.34875 0.30346-0.88269 0.67272-0.51615zm-13.591-8.7845c3.4763 1.8805 1.9889 4.3678 0.84876 1.3984-0.17214-0.50357-1.1002-0.79316-0.84876-1.3984zm11.943 9.4588c2.0932 0.63972 2.2861 6.7764 1.2462 2.5619 0.02372-1.0489-2.0984-2.2992-1.2462-2.5619zm0.76419 2.7592c-0.27915 5.1781 1.0841 0.86897 0.87029 2.6647-1.8557 4.194-1.6526-2.1271-0.87029-2.6647zm-8.1761-5.2088c1.578 2.3874-1.2954 2.3235 0 0zm0.98212 7.8703c0.93404 1.7011-1.9826 7.8244-0.67526 3.2446 0.34529-0.90817-0.03206-2.6783 0.67526-3.2446z" stroke-width=".093641"/>
   <g fill="#00002b">
    <path d="m73.296 167.12c0.29033 0.63866 0.52908 1.3006 0.8519 1.9241 0.28071 0.52678 0.54045 1.062 0.89949 1.5403 0.08882 0.0952 0.18156 0.21718 0.30401 0.27766 0.03312 0.0164 0.14565 0.0217 0.10872 0.0214-1.3018-0.01-0.90205 0.19998-0.75701-0.17497 0.06967-0.36723 0.05565-0.7452 0.0553-1.1174 0.01386-0.52521 0.23356-1.0038 0.4542-1.4701 0.17719-0.30361 0.08256-0.15313 0.28463-0.451l0.92829 0.0558c-0.20014 0.289-0.10651 0.14329-0.28175 0.4366-0.21725 0.45259-0.44196 0.91633-0.45278 1.4286 5.29e-4 0.38257 0.01524 0.7696-0.05021 1.148-0.2261 0.75889-1.1997 0.36221-1.5201-0.0953-0.35558-0.4852-0.61799-1.0239-0.89666-1.5558-0.31924-0.62896-0.5591-1.2933-0.86266-1.93l0.93464-0.0379z"/>
    <path d="m100.05 109.18c0.73214-0.45074 1.4742-0.87821 2.2452-1.2588 0.97904-0.44671 1.9749-0.84781 2.9915-1.1996 0.63785-0.24628 1.2986-0.36756 1.9755-0.43177l0.9111 0.13597c-0.67646 0.0569-1.3384 0.16522-1.9766 0.40914-1.0165 0.34847-2.0124 0.74349-2.9912 1.1881-0.76561 0.37517-1.4999 0.79851-2.2256 1.2457l-0.92995-0.0887z"/>
    <path d="m105.74 103.92c0.83204-0.37394 1.6035-0.87232 2.3669-1.3685 0.77222-0.53267 1.5672-1.0332 2.4429-1.3759 0.25365-0.0966 0.51855-0.14739 0.78474-0.19267l0.92237 0.13143c-0.26697 0.0382-0.53283 0.0818-0.78826 0.17275-0.88212 0.32532-1.6816 0.8188-2.4511 1.355-0.76054 0.49914-1.5314 0.99179-2.3501 1.3908l-0.92738-0.11295z"/>
    <path d="m87.03 134.53c0.88762-0.36427 1.7909-0.68673 2.6967-1.0026 0.9304-0.32854 1.8548-0.67219 2.7753-1.0276 0.44867-0.15078 0.22852-0.0832 0.65988-0.20464l0.91897 0.12054c-0.43324 0.11464-0.2122 0.0503-0.66258 0.19502-0.92563 0.35221-1.8516 0.70161-2.7862 1.0291-0.89929 0.31356-1.7984 0.6291-2.6747 1.0032l-0.92738-0.11295z"/>
    <path d="m88.518 130.57c0.60399-0.24832 1.1664-0.58327 1.7411-0.89053 0.47207-0.26814 0.95272-0.52037 1.4437-0.75204 0.35224-0.13842 0.1758-0.0692 0.52935-0.2077l0.9225 0.11082c-0.35208 0.13937-0.17622 0.0721-0.52754 0.20191-0.49143 0.23004-0.97485 0.47627-1.445 0.74748-0.57707 0.3019-1.1363 0.64015-1.7351 0.89887l-0.92905-0.10881z"/>
    <path d="m88.07 137.88c0.34321-0.57727 0.76777-1.0636 1.3163-1.4497 0.35059-0.23292 0.74319-0.35022 1.1489-0.4396l0.92042 0.12661c-0.40358 0.0779-0.79581 0.18031-1.1484 0.40264-0.54987 0.36598-0.96969 0.83774-1.3037 1.4086l-0.93358-0.0485z"/>
    <path d="m83.368 143.56c0.64429-0.62731 1.3675-1.1684 2.157-1.5972 0.61711-0.30473 1.2815-0.47217 1.9615-0.55244 0.0923-6e-3 0.1846-0.012 0.27691-0.018l0.919 0.14017c-0.09164 5e-3 -0.18328 9e-3 -0.27493 0.0136-0.68023 0.0675-1.3465 0.2215-1.9675 0.51595-0.78528 0.41349-1.5051 0.94003-2.1391 1.5629l-0.9329-0.0649z"/>
    <path d="m111.6 96.342c0.45497-0.18169 0.21569-0.0828 0.71698-0.29874l0.915 0.1064c-0.49301 0.21996-0.25776 0.12289-0.70396 0.29551l-0.92802-0.10317z"/>
    <path d="m115.02 101.06c0.67716-0.35369 1.4033-0.59872 2.1052-0.89728 0.40795-0.20193 0.8232-0.38777 1.2301-0.59152l0.91961 0.1014c-0.40526 0.21148-0.82598 0.38876-1.2329 0.5975-0.69766 0.30112-1.426 0.53603-2.0956 0.89715l-0.92642-0.10725z"/>
    <path d="m90.809 120.55c0.77358-0.30498 1.5842-0.46541 2.4042-0.58156 0.82499-0.10806 1.6582-0.11738 2.4888-0.12524 1.0243-4e-3 2.0486-2e-3 3.0729 5.3e-4 0.26028 5.3e-4 0.52056 7.9e-4 0.78084 1e-3l-0.92014 0.14559c-0.25926-5.3e-4 -0.51852-1e-3 -0.77778-2e-3 -0.90785-2e-3 0.32723 8e-4 -0.6033-2e-3 -0.11461-2.6e-4 -0.45844 3e-5 -0.34383-7.9e-4 1.3135-0.0107-0.08954 6e-3 -0.29796 5.3e-4 -0.83057 6e-3 -1.6636 0.0125-2.4892 0.11324-0.81402 0.10877-1.6206 0.25689-2.387 0.56308l-0.92739-0.11296z"/>
    <path d="m96.93 107.81c0.30546-0.70812 0.66889-1.369 1.1722-1.9546 0.51678-0.62158 1.1629-1.1079 1.8208-1.5686 0.71342-0.48917 1.5421-0.59398 2.3821-0.65901l0.90643 0.13679c-0.82964 0.0571-1.6558 0.14168-2.3692 0.61111-0.65714 0.45238-1.3043 0.93129-1.8211 1.5457-0.50509 0.57155-0.86347 1.2194-1.1576 1.9222l-0.93364-0.0335z"/>
    <path d="m103.61 97.256c0.51399-0.54201 1.181-0.80465 1.8672-1.0503 0.41379-0.13593 0.21114-0.07392 0.60755-0.18732l0.92046 0.12027c-0.39844 0.1079-0.19481 0.04826-0.61048 0.18039-0.67686 0.23928-1.3473 0.47092-1.8532 1.0103l-0.93144-0.0733z"/>
   </g>
  </g>
 </g>
</svg>
